<svg height="512pt" viewBox="-32 0 512 512" width="512pt" xmlns="http://www.w3.org/2000/svg"><path d="m272 0h96c44.183594 0 80 35.816406 80 80v352c0 44.183594-35.816406 80-80 80h-96c-44.183594 0-80-35.816406-80-80v-352c0-44.183594 35.816406-80 80-80zm0 0" fill="#708299"/><path d="m272 32h96c26.507812 0 48 21.492188 48 48v352c0 26.507812-21.492188 48-48 48h-96c-26.507812 0-48-21.492188-48-48v-352c0-26.507812 21.492188-48 48-48zm0 0" fill="#80d8ff"/><path d="m224 212.929688v214.140624c10.363281 3.21875 21.148438 4.878907 32 4.929688 61.855469 0 112-50.144531 112-112s-50.144531-112-112-112c-10.851562.050781-21.636719 1.710938-32 4.929688zm0 0" fill="#40c4ff"/><path d="m256 384h-176c-35.347656 0-64-28.652344-64-64s28.652344-64 64-64h176c35.347656 0 64 28.652344 64 64s-28.652344 64-64 64zm0 0" fill="#ccdade"/><g fill="#fff"><path d="m336 128h32v32h-32zm0 0"/><path d="m272 128h32v32h-32zm0 0"/><path d="m256 64h128v32h-128zm0 0"/></g><path d="m32 224h-32c.0976562-79.488281 64.511719-143.902344 144-144v32c-61.828125.070312-111.929688 50.171875-112 112zm0 0" fill="#f8d539"/><path d="m96 224h-32c.054688-44.160156 35.839844-79.945312 80-80v32c-26.507812 0-48 21.492188-48 48zm0 0" fill="#f8d539"/><path d="m256 352h-176c-29.09375-.109375-54.453125-19.828125-61.726562-48-1.441407 5.214844-2.207032 10.589844-2.273438 16 0 35.347656 28.652344 64 64 64h176c35.347656 0 64-28.652344 64-64-.066406-5.410156-.832031-10.785156-2.273438-16-7.273437 28.171875-32.632812 47.890625-61.726562 48zm0 0" fill="#b6cdd3"/></svg>